<svg width="48" height="38" viewBox="0 0 48 38" fill="none" xmlns="http://www.w3.org/2000/svg">
<g clip-path="url(#clip0_1023_24)">
<path fill-rule="evenodd" clip-rule="evenodd" d="M3.43187 0.0112305H44.5674C45.4763 0.0121426 46.3477 0.375424 46.9903 1.02135C47.633 1.66727 47.9944 2.54307 47.9953 3.45655V34.4644C47.994 35.3777 47.6324 36.2533 46.9898 36.8991C46.3472 37.5449 45.4761 37.9084 44.5674 37.9097H3.43187C2.52299 37.9088 1.65161 37.5455 1.00893 36.8996C0.366264 36.2537 0.00481376 35.3779 0.00390625 34.4644V3.45655C0.00481376 2.54307 0.366264 1.66727 1.00893 1.02135C1.65161 0.375424 2.52299 0.0121426 3.43187 0.0112305ZM22.2856 3.45655H3.43187V34.4644H22.2856V3.45655ZM25.7136 3.45655V34.4644H44.5708L44.5674 3.45655H25.7136ZM41.1395 8.62402H29.1416V12.0693H41.1395V8.62402ZM41.1395 17.2373H29.1416V20.6826H41.1395V17.2373ZM29.1416 25.8506H41.1395V29.2959H29.1416V25.8506Z" fill="white"/>
</g>
<defs>
<clipPath id="clip0_1023_24">
<rect width="48" height="37.92" fill="white"/>
</clipPath>
</defs>
</svg>
